<?xml version="1.0" encoding="UTF-8"?><svg id="Layer_2" xmlns="http://www.w3.org/2000/svg" viewBox="0 0 32.43 66.9"><defs><style>.cls-1{fill:#66946a;}</style></defs><g id="Layer_1-2"><path class="cls-1" d="M32.16,35.12c-3.53-16.71-3.04-32.97-3.03-33.13.02-.62-.26-1.22-.75-1.6-.5-.38-1.14-.5-1.73-.32-.62.19-15.36,4.83-23.9,24.83-8.62,20.18,5.85,40.34,6.46,41.19.37.51.95.79,1.56.79.2,0,.41-.03.61-.1l5.47-1.82c.28-.09.54-.24.74-.45.7-.69,17.2-17,14.58-29.41h0M16.4,60.2c-.23-1.64-.42-3.31-.52-4.88-.57-12.03,1.64-24.19,5.68-35.56-6.66,11.6-11.54,24.59-12.73,38.01-3.48-7.1-7.63-19.41-2.54-31.34C12.04,12.97,20.91,7.07,25.22,4.88c.01,5.56.4,18.02,3.15,31.04,1.63,7.71-7.04,18.97-11.98,24.28Z"/></g></svg>