<?xml version="1.0" encoding="UTF-8"?>
<svg id="Layer_1" data-name="Layer 1" xmlns="http://www.w3.org/2000/svg" viewBox="0 0 100 74">
  <defs>
    <style>
      .cls-1 {
        fill: #f4bb37;
      }
    </style>
  </defs>
  <path class="cls-1" d="M44.45,57.46c-.96,7.56-6.4,13.91-13.75,15.79C-11.36,81.04-5.59,26.2,20.38,3.12c10.16-9.03,23.49,3.38,12.06,14.13-4.91,4.62-8.79,11.02-10.45,16.58,12.74-1.05,24.74,7.18,22.46,23.63Z"/>
  <path class="cls-1" d="M99.72,57.46c-.96,7.56-6.4,13.91-13.75,15.79-42.06,7.79-36.3-47.05-10.33-70.13,10.16-9.03,23.49,3.38,12.06,14.13-4.91,4.62-8.79,11.02-10.45,16.58,12.74-1.05,24.74,7.18,22.46,23.63Z"/>
</svg>