<?xml version="1.0" encoding="utf-8"?>
<!-- Generator: Adobe Illustrator 27.0.1, SVG Export Plug-In . SVG Version: 6.00 Build 0)  -->
<svg version="1.1" id="Layer_2_00000079488058919582020920000001423313534930822034_"
	 xmlns="http://www.w3.org/2000/svg" xmlns:xlink="http://www.w3.org/1999/xlink" x="0px" y="0px" viewBox="0 0 693 201"
	 style="enable-background:new 0 0 693 201;" xml:space="preserve">
<style type="text/css">
	.st0{clip-path:url(#SVGID_00000167360063917685181010000015153047166617570690_);}
	.st1{fill:#0E4C7A;}
	.st2{fill:#9CB62A;}
	.st3{fill:#992C1D;}
	.st4{fill:url(#SVGID_00000132787554408311068960000011886509827523636101_);}
	.st5{fill:url(#SVGID_00000146463061307230243040000003332050829587857033_);}
	.st6{fill:#EBB33A;}
</style>
<g id="Layer_1-2">
	<g>
		<defs>
			<rect id="SVGID_1_" x="-41" y="-42.5" width="770.5" height="287.8"/>
		</defs>
		<clipPath id="SVGID_00000054255827280181760200000010795564044564576931_">
			<use xlink:href="#SVGID_1_"  style="overflow:visible;"/>
		</clipPath>
		<g style="clip-path:url(#SVGID_00000054255827280181760200000010795564044564576931_);">
			<g>
				<path class="st1" d="M325.1,177.9h-42.2c-4,0-6.7-3.1-6.7-6.7V36.7c0-3.8,2.9-6.7,6.7-6.7h42.2c44.8,0,73.7,32.6,73.7,73.9
					S370,177.9,325.1,177.9L325.1,177.9z M324.2,42.1h-34.6v123.9h34.6c38.6,0,61.3-27.1,61.3-61.9S362.8,42.1,324.2,42.1
					L324.2,42.1z"/>
				<path class="st1" d="M173.9,107.6V42.1h78.8c3.3,0,6-2.7,6-6s-2.7-6-6-6h-85.5c-3.8,0-6.7,2.9-6.7,6.7v71.1L173.9,107.6
					L173.9,107.6z"/>
				<path class="st1" d="M104.7,111.1c21.8-4,33.5-19.8,33.5-40c0-23.5-16.2-41.1-45.5-41.1H52.3c0.3,3.7,0.6,7.8,1.1,12h41.9
					c18.4,0,29.5,12.2,29.5,29.1s-11.1,29.1-29.5,29.1H37.7c-1.8,2-3.1,3.2-3.1,3.2l-8.5,2.8c0,0-1.7-2.3-3.9-6.3V173
					c0,3.8,2.9,6.7,6.7,6.7c4,0,6.7-2.9,6.7-6.7v-60.8h54.8l31.3,63.7c1.3,2.4,2.9,3.8,6.2,3.8c3.8,0,6.4-3.1,6.4-6.4
					c0-1.1-0.4-2.2-0.9-3.1L104.7,111.1L104.7,111.1z"/>
				<path class="st2" d="M59.4,59.9C53.9,34,54.7,8.8,54.7,8.5c0-1-0.4-1.9-1.2-2.5s-1.8-0.8-2.7-0.5c-1,0.3-23.8,7.5-37.1,38.5
					c-13.4,31.3,9.1,62.6,10,63.9c0.6,0.8,1.5,1.2,2.4,1.2c0.3,0,0.6-0.1,0.9-0.1l8.5-2.8c0.4-0.1,0.8-0.4,1.2-0.7
					C37.9,104.5,63.5,79.2,59.4,59.9L59.4,59.9z M34.9,98.9c-0.4-2.6-0.7-5.1-0.8-7.6c-0.9-18.7,2.6-37.5,8.8-55.2
					c-10.3,18-17.9,38.2-19.8,59c-5.4-11-11.8-30.1-3.9-48.6C28.2,25.6,42,16.4,48.6,13c0,8.6,0.6,28,4.9,48.2
					C56.1,73.1,42.6,90.6,34.9,98.9L34.9,98.9z"/>
				<path class="st3" d="M327.2,87.8c-1,0-1.9-0.3-2.7-1l-20.4-18.4c-0.9-0.8-1.4-2-1.3-3.2s0.6-2.3,1.6-3l20.4-15.3
					c1.8-1.3,4.3-1,5.6,0.8c1.3,1.8,1,4.3-0.8,5.6l-16.5,12.4l16.8,15.2c1.6,1.5,1.8,4,0.3,5.7C329.4,87.4,328.3,87.8,327.2,87.8
					L327.2,87.8z"/>
				<g>
					<path class="st1" d="M585.3,98.4c1,3.3-4.6,3.4-0.4,6.1c1.2,0.7,2.5,1.4,3.8,2c5,2.1,9.8,2.4,12.8,0.8c1.1-0.6,2.2-1.3,3.3-2
						c1.1-0.8,2.3-1.6,3.6-2.2c3.6-1.9,7.8-2.7,12-2.4c3.5-0.1,7,0.9,9.9,2.9c0.1,0.1,0.2,0.2,0.4,0.3c0.3,0.2,0.7,0.4,1,0.6
						c6.4,4.2,14,5.3,18.5,5l-7-15.6c-4.3-5.4-10.7-7-16.2-7l4.5,10.4c-6.4-3.4-14.5-3.6-21-0.1c-1.3,0.7-2.5,1.5-3.6,2.2
						c-1.1,0.8-2.2,1.5-3.3,2c-3.7,1.9-8.2,1.9-12.5,0.1c-1.5-0.6-2.9-1.5-4.1-2.4L585.3,98.4L585.3,98.4z"/>
					<path class="st1" d="M677.6,170.6l-18.8-41.9c-4.1,3.1-7.7,5.1-11,6.2l3.2,7.1h0l15,33.5c0.9,2.2,2.7,4.2,6,4.2
						c4,0,6.4-2.7,6.4-6C678.5,172.6,678.1,171.5,677.6,170.6L677.6,170.6z"/>
					<path class="st1" d="M652.8,115.2c-1.2,0.2-2.6,0.3-4,0.3c-3,0-6.5-0.5-10-1.4l3.9,9h-0.1l0.6,1.4c-1.9,0.2-5.9-1.3-9.5-3.9
						c-6.7-4.8-16-5.4-23.3-1.5c-1.3,0.7-2.5,1.5-3.6,2.2c-1.1,0.8-2.2,1.5-3.3,2c-3.2,1.6-7.6,1.5-12.1-0.4c-5-2.1-9-6-10.5-10
						l-0.6-2.9c-4-2.4-3.6,0.7-5.8-2.6l-2.3-0.4c2.8-0.8,0.7,0.3,0.7,0.3c2.1,4.6,1.8,8.9,5,12.2c3.8,4,8.3,7,13,8.7
						c4.8,1.7,9.4,1.7,12.5,0.1c1.2-0.6,2.3-1.1,3.4-1.6c1.2-0.5,2.3-1,3.5-1.7c7.1-3.8,17.5-4.4,23.7,1.9c4.8,4.8,13.3,3,22.3-3.5
						L652.8,115.2L652.8,115.2z"/>
					<path class="st1" d="M582.6,83.5c2.1,2.1,5.3,4,8.9,5.2v0.1c2.6,1,5.4,1.6,8.2,1.6c0.7,0,1.5,0,2.2-0.1c0.5-0.1,1-0.3,1.4-0.5
						c1.3-0.7,3.9-2.1,6.2-3.4c1.9-1.1,3.7-2.1,4.7-2.6c5.1-2.7,15.2-4.4,24.1-0.8l-22.5-50.2c-1.3-2.9-3.1-4.4-6.2-4.4
						s-4.9,1.6-6.2,4.4l-22.3,50C581.7,82.9,582.3,83.1,582.6,83.5L582.6,83.5z M609.7,46.9l12.7,29.2c-3.3,0.1-6.6,0.9-9.6,2.5
						c-1.3,0.7-2.5,1.5-3.6,2.2c-1.1,0.8-2.2,1.5-3.3,2c-3.5,1.8-8,1.8-12,0.3C593.9,83.2,609.7,46.9,609.7,46.9z"/>
				</g>
				
					<linearGradient id="SVGID_00000141426361289277152470000014011314179705024428_" gradientUnits="userSpaceOnUse" x1="21.81" y1="57.17" x2="270.703" y2="57.17" gradientTransform="matrix(1 0 0 -1 0 203.5118)">
					<stop  offset="0.2" style="stop-color:#9CB62A"/>
					<stop  offset="1" style="stop-color:#3F5E28"/>
				</linearGradient>
				<path style="fill:url(#SVGID_00000141426361289277152470000014011314179705024428_);" d="M173.7,113.8c0-0.2,0-0.5,0-0.7
					c0-1.4,1.1-2.5,2.5-2.5h32.5c1.4,0,2.5,1.1,2.5,2.5s-1.1,2.5-2.5,2.5h-29.8v10.2H217c3.7,0,6.6-3,6.6-6.6v-12.8
					c0-3.7-3-6.6-6.6-6.6H28.4c-3.7,0-6.6,3-6.6,6.6s3,6.6,6.6,6.6h132.1v6.2l-0.2,52.3c0,3.7,3,6.6,6.6,6.6h90.6l-12.1,9.1
					c-1.3,1-1.6,2.9-0.6,4.2c0.6,0.8,1.5,1.2,2.4,1.2c0.6,0,1.3-0.2,1.8-0.6l20.4-15.3c0.7-0.5,1.2-1.4,1.2-2.3c0-0.9-0.3-1.8-1-2.4
					l-20.4-18.4c-1.2-1.1-3.1-1-4.2,0.2s-1,3.1,0.2,4.2l7.5,6.7h-76.8l-2.1,0.1v-0.1h-0.1v-39.2L173.7,113.8L173.7,113.8z"/>
				<path class="st1" d="M512.2,125.3l-41.5-92.6c-1.3-2.9-3.1-4.4-6.2-4.4s-4.9,1.6-6.2,4.4l-61.7,137.9c-0.4,0.9-0.9,2-0.9,3.1
					c0,3.3,2.4,6,6.4,6c3.3,0,5.1-2,6-4.2l20-44.8l72.2-0.4L512.2,125.3L512.2,125.3z M464.4,57.3c7.3,0,13.2,5.9,13.2,13.2
					s-5.9,13.2-13.2,13.2s-13.2-5.9-13.2-13.2S457.1,57.3,464.4,57.3L464.4,57.3z M446.3,126.6v-3.6h-14.8l2.3-5.2h12.5V98.1
					c0-5.7,4.7-10.4,10.4-10.4h12.6c5.7,0,10.4,4.7,10.4,10.4v19.8h15.7l2.3,5.2h-23.5L446.3,126.6z"/>
				
					<linearGradient id="SVGID_00000026843468508897045210000008376840997650375094_" gradientUnits="userSpaceOnUse" x1="358.7" y1="54.06" x2="542.37" y2="54.06" gradientTransform="matrix(1 0 0 -1 0 203.5118)">
					<stop  offset="0" style="stop-color:#992C1D"/>
					<stop  offset="0.92" style="stop-color:#EBB33A"/>
				</linearGradient>
				<path style="fill:url(#SVGID_00000026843468508897045210000008376840997650375094_);" d="M527.9,181.6c-2.6,0-5-1.5-6.1-3.9
					L500.5,131l-141.8,0.4l0-13.5l145.9-0.6h0c2.6,0,5,1.5,6.1,3.9l21.4,46.7l9.6,0.1l0.6,13.1l-14.3,0.4
					C528,181.6,528,181.6,527.9,181.6L527.9,181.6z"/>
				<path class="st3" d="M330.3,150.2c-2.1,0-3.8-1.6-4-3.7c-0.2-2.2,1.5-4.1,3.6-4.3c20.2-1.7,30.3-19.6,29.5-35.5
					c-1-21.9-14.7-35.1-38.4-36.9c-2.2-0.2-3.9-2.1-3.7-4.3c0.2-2.2,2.1-3.8,4.3-3.7c27.9,2.2,44.5,18.4,45.8,44.5
					c0.9,19.7-11.6,41.8-36.8,43.9C330.5,150.1,330.4,150.2,330.3,150.2L330.3,150.2z"/>
				<g>
					<path class="st6" d="M570,107.5c2.1,4.5,4.7,8.5,7.8,11.9l4.3-9.6c-4.3-2.6-7.8-6-9.9-9.6l-2.9,6.4
						C569.7,106.9,569.9,107.2,570,107.5z"/>
					<path class="st6" d="M576.5,95c1,3.3,4.1,6.7,8.2,9.3l4.1-9.1c-4.4-1.5-8.5-3.8-11.1-6.6c0,0-0.1-0.1-0.1-0.1l-2.2,5
						C575.9,93.8,576.3,94.3,576.5,95L576.5,95z"/>
					<path class="st6" d="M582,84.4c2.1,2.2,5.6,4.1,9.3,5.2l23.9-52.9c1.5-3.3,0-7.1-3.3-8.6c-3.3-1.5-7.1,0-8.6,3.3l-23.5,52.2
						C580.6,83.5,581.4,83.8,582,84.4L582,84.4z"/>
					<path class="st6" d="M541.2,181.2l4.7-0.2c2.6,0,4.9-1.5,5.9-3.8l23.4-52c-3.5-3.3-6.5-7.3-8.9-11.8L541.7,168L541.2,181.2
						L541.2,181.2z"/>
				</g>
			</g>
		</g>
	</g>
</g>
</svg>
