<?xml version="1.0" encoding="UTF-8"?><svg id="Layer_2" xmlns="http://www.w3.org/2000/svg" xmlns:xlink="http://www.w3.org/1999/xlink" viewBox="0 0 770.46 330.8"><defs><style>.cls-1{fill:#0e4c7a;}.cls-2{fill:#ebb33a;}.cls-3{fill:url(#linear-gradient-2);}.cls-4{fill:#992c1d;}.cls-5{fill:url(#New_Gradient_Swatch_3);}.cls-6{clip-path:url(#clippath);}.cls-7{fill:#9cb62a;}.cls-8{fill:none;}.cls-9{fill:url(#linear-gradient);}</style><clipPath id="clippath"><rect class="cls-8" width="770.46" height="330.8"/></clipPath><linearGradient id="linear-gradient" x1="66.67" y1="268.16" x2="432.23" y2="268.16" gradientUnits="userSpaceOnUse"><stop offset="0" stop-color="#992c1d"/><stop offset=".28" stop-color="#ebb33a"/><stop offset=".66" stop-color="#9cb62a"/><stop offset="1" stop-color="#3f5e28"/></linearGradient><linearGradient id="New_Gradient_Swatch_3" x1="63.1" y1="207.78" x2="311.98" y2="207.78" gradientUnits="userSpaceOnUse"><stop offset=".2" stop-color="#9cb62a"/><stop offset="1" stop-color="#3f5e28"/></linearGradient><linearGradient id="linear-gradient-2" x1="399.99" y1="210.89" x2="583.65" y2="210.89" gradientUnits="userSpaceOnUse"><stop offset="0" stop-color="#992c1d"/><stop offset=".92" stop-color="#ebb33a"/></linearGradient></defs><g id="Layer_1-2"><g class="cls-6"><g><g><path class="cls-1" d="M447.98,278.61c-.48,0-.84-.36-.84-.84v-17.42c0-.48,.36-.84,.84-.84s.84,.36,.84,.84v17.42c0,.48-.36,.84-.84,.84Z"/><path class="cls-1" d="M468.31,278.61c-.31,0-.48-.14-.64-.36l-11.87-15.65v15.23c0,.42-.34,.78-.78,.78-.48,0-.81-.36-.81-.78v-17.5c0-.48,.34-.81,.84-.81,.28,0,.5,.17,.64,.36l11.84,15.68v-15.23c0-.48,.34-.81,.81-.81s.78,.36,.78,.81v17.5c0,.42-.28,.78-.81,.78Z"/><path class="cls-1" d="M498.32,277.46c.06,.11,.11,.25,.11,.39,0,.42-.31,.76-.81,.76-.42,0-.64-.25-.76-.53l-2.3-5.12h-9.63l-2.3,5.12c-.11,.28-.34,.53-.76,.53-.5,0-.81-.34-.81-.76,0-.14,.06-.28,.11-.39l7.78-17.39c.17-.36,.39-.56,.78-.56s.62,.2,.78,.56l7.78,17.39Zm-4.4-5.99l-4.17-9.6-4.17,9.6h8.34Z"/><path class="cls-1" d="M503.19,278.61c-.48,0-.84-.36-.84-.84v-17.19c0-.48,.36-.84,.84-.84h10.78c.42,0,.76,.34,.76,.76s-.34,.76-.76,.76h-9.94v6.75h5.77c.42,0,.76,.34,.76,.76s-.34,.76-.76,.76h-5.77v8.26c0,.48-.36,.84-.84,.84Z"/><path class="cls-1" d="M528.25,269.96l3.64,7.45c.06,.11,.11,.25,.11,.39,0,.42-.34,.81-.81,.81-.42,0-.62-.17-.78-.48l-3.95-8.04h-6.92v7.67c0,.48-.34,.84-.84,.84-.48,0-.84-.36-.84-.84v-17.19c0-.48,.39-.84,.84-.84h8.04c3.7,0,5.74,2.21,5.74,5.18,0,2.55-1.48,4.54-4.23,5.04Zm-1.18-8.71h-7.53v7.34h7.53c2.32,0,3.72-1.54,3.72-3.67s-1.4-3.67-3.72-3.67Z"/><path class="cls-1" d="M537.94,278.61c-.48,0-.84-.36-.84-.84v-17.42c0-.48,.36-.84,.84-.84s.84,.36,.84,.84v17.42c0,.48-.36,.84-.84,.84Z"/><path class="cls-1" d="M559.61,262.93c.11,.17,.22,.34,.22,.56,0,.45-.34,.76-.78,.76-.25,0-.42-.08-.59-.31-1.4-1.76-3.08-3-6.02-3-4.84,0-7.64,3.86-7.64,8.12s2.8,8.12,7.64,8.12c2.94,0,4.62-1.23,6.02-3,.17-.22,.34-.31,.59-.31,.45,0,.78,.31,.78,.76,0,.22-.11,.39-.22,.56-1.51,1.99-3.84,3.53-7.17,3.53-5.66,0-9.32-4.34-9.32-9.66s3.67-9.66,9.32-9.66c3.33,0,5.66,1.54,7.17,3.53Z"/><path class="cls-1" d="M579.52,277.46c.06,.11,.11,.25,.11,.39,0,.42-.31,.76-.81,.76-.42,0-.64-.25-.76-.53l-2.3-5.12h-9.63l-2.3,5.12c-.11,.28-.34,.53-.76,.53-.5,0-.81-.34-.81-.76,0-.14,.06-.28,.11-.39l7.78-17.39c.17-.36,.39-.56,.78-.56s.62,.2,.78,.56l7.78,17.39Zm-4.4-5.99l-4.17-9.6-4.17,9.6h8.34Z"/><path class="cls-1" d="M607.52,277.46c.06,.11,.11,.25,.11,.39,0,.42-.31,.76-.81,.76-.42,0-.64-.25-.76-.53l-2.3-5.12h-9.63l-2.3,5.12c-.11,.28-.34,.53-.76,.53-.5,0-.81-.34-.81-.76,0-.14,.06-.28,.11-.39l7.78-17.39c.17-.36,.39-.56,.78-.56s.62,.2,.78,.56l7.78,17.39Zm-4.4-5.99l-4.17-9.6-4.17,9.6h8.34Z"/><path class="cls-1" d="M625.66,278.61c-.31,0-.48-.14-.64-.36l-11.87-15.65v15.23c0,.42-.34,.78-.78,.78-.48,0-.81-.36-.81-.78v-17.5c0-.48,.34-.81,.84-.81,.28,0,.5,.17,.64,.36l11.84,15.68v-15.23c0-.48,.34-.81,.81-.81s.78,.36,.78,.81v17.5c0,.42-.28,.78-.81,.78Z"/><path class="cls-1" d="M637.87,278.39h-5.32c-.5,0-.84-.39-.84-.84v-16.97c0-.48,.36-.84,.84-.84h5.32c5.66,0,9.3,4.12,9.3,9.32s-3.64,9.32-9.3,9.32Zm-.11-17.14h-4.37v15.62h4.37c4.87,0,7.73-3.42,7.73-7.81s-2.86-7.81-7.73-7.81Z"/><path class="cls-1" d="M674.97,277.46c.06,.11,.11,.25,.11,.39,0,.42-.31,.76-.81,.76-.42,0-.64-.25-.76-.53l-2.3-5.12h-9.63l-2.3,5.12c-.11,.28-.34,.53-.76,.53-.5,0-.81-.34-.81-.76,0-.14,.06-.28,.11-.39l7.78-17.39c.17-.36,.39-.56,.78-.56s.62,.2,.78,.56l7.78,17.39Zm-4.4-5.99l-4.17-9.6-4.17,9.6h8.34Z"/><path class="cls-1" d="M685.19,278.72c-2.77,0-5.32-.98-7.06-2.32-.25-.22-.39-.45-.39-.7,0-.39,.31-.67,.7-.67,.25,0,.48,.11,.67,.25,1.4,.98,3.39,1.99,6.05,1.99,3.36,0,5.29-1.37,5.29-3.44s-2.1-3.08-5.38-4.06c-5.54-1.68-6.94-3.42-6.94-5.6,0-3.25,3.22-4.76,6.94-4.76,2.21,0,4.26,.59,6.02,1.79,.25,.17,.39,.34,.39,.59,0,.34-.25,.73-.76,.73-.14,0-.31-.06-.45-.14-1.74-1.06-3.56-1.51-5.24-1.51-2.91,0-5.24,.98-5.24,3.3,0,1.9,1.54,2.86,5.29,4.09,4.4,1.46,7.03,2.41,7.03,5.52s-2.63,4.96-6.94,4.96Z"/><path class="cls-1" d="M697.23,278.61c-.48,0-.84-.36-.84-.84v-17.42c0-.48,.36-.84,.84-.84s.84,.36,.84,.84v17.42c0,.48-.36,.84-.84,.84Z"/><path class="cls-1" d="M719.38,277.46c.06,.11,.11,.25,.11,.39,0,.42-.31,.76-.81,.76-.42,0-.64-.25-.76-.53l-2.3-5.12h-9.63l-2.3,5.12c-.11,.28-.34,.53-.76,.53-.5,0-.81-.34-.81-.76,0-.14,.06-.28,.11-.39l7.78-17.39c.17-.36,.39-.56,.78-.56s.62,.2,.78,.56l7.78,17.39Zm-4.4-5.99l-4.17-9.6-4.17,9.6h8.34Z"/></g><g><path class="cls-1" d="M138.93,61.71l3.64,7.45c.06,.11,.11,.25,.11,.39,0,.42-.34,.81-.81,.81-.42,0-.62-.17-.78-.48l-3.95-8.04h-6.92v7.67c0,.48-.34,.84-.84,.84-.48,0-.84-.36-.84-.84v-17.19c0-.48,.39-.84,.84-.84h8.04c3.7,0,5.74,2.21,5.74,5.18,0,2.55-1.48,4.54-4.23,5.04Zm-1.18-8.71h-7.53v7.34h7.53c2.32,0,3.72-1.54,3.72-3.67s-1.4-3.67-3.72-3.67Z"/><path class="cls-1" d="M149.31,68.62h9.97c.42,0,.76,.34,.76,.76s-.34,.76-.76,.76h-10.81c-.48,0-.84-.36-.84-.84v-16.97c0-.48,.36-.84,.84-.84h10.78c.42,0,.76,.34,.76,.76s-.34,.76-.76,.76h-9.94v6.75h5.77c.42,0,.76,.34,.76,.76s-.34,.76-.76,.76h-5.77v7.36Z"/><path class="cls-1" d="M169.33,69.83l-7.42-17.44c-.06-.14-.08-.28-.08-.39,0-.42,.36-.73,.78-.73,.31,0,.56,.14,.7,.45l6.78,15.96,6.78-15.96c.14-.31,.39-.45,.7-.45,.42,0,.78,.31,.78,.73,0,.11-.03,.25-.08,.39l-7.42,17.44c-.14,.31-.34,.53-.76,.53s-.62-.22-.76-.53Z"/><path class="cls-1" d="M182.89,68.62h9.97c.42,0,.76,.34,.76,.76s-.34,.76-.76,.76h-10.81c-.48,0-.84-.36-.84-.84v-16.97c0-.48,.36-.84,.84-.84h10.78c.42,0,.76,.34,.76,.76s-.34,.76-.76,.76h-9.94v6.75h5.77c.42,0,.76,.34,.76,.76s-.34,.76-.76,.76h-5.77v7.36Z"/><path class="cls-1" d="M207.83,61.71l3.64,7.45c.06,.11,.11,.25,.11,.39,0,.42-.34,.81-.81,.81-.42,0-.62-.17-.78-.48l-3.95-8.04h-6.92v7.67c0,.48-.34,.84-.84,.84-.48,0-.84-.36-.84-.84v-17.19c0-.48,.39-.84,.84-.84h8.04c3.7,0,5.74,2.21,5.74,5.18,0,2.55-1.48,4.54-4.23,5.04Zm-1.18-8.71h-7.53v7.34h7.53c2.32,0,3.72-1.54,3.72-3.67s-1.4-3.67-3.72-3.67Z"/><path class="cls-1" d="M223.15,70.47c-2.77,0-5.32-.98-7.06-2.32-.25-.22-.39-.45-.39-.7,0-.39,.31-.67,.7-.67,.25,0,.48,.11,.67,.25,1.4,.98,3.39,1.99,6.05,1.99,3.36,0,5.29-1.37,5.29-3.44s-2.1-3.08-5.38-4.06c-5.54-1.68-6.94-3.42-6.94-5.6,0-3.25,3.22-4.76,6.94-4.76,2.21,0,4.26,.59,6.02,1.79,.25,.17,.39,.34,.39,.59,0,.34-.25,.73-.76,.73-.14,0-.31-.06-.45-.14-1.74-1.06-3.56-1.51-5.24-1.51-2.91,0-5.24,.98-5.24,3.3,0,1.9,1.54,2.86,5.29,4.09,4.4,1.46,7.03,2.41,7.03,5.52s-2.63,4.96-6.94,4.96Z"/><path class="cls-1" d="M235.19,70.36c-.48,0-.84-.36-.84-.84v-17.42c0-.48,.36-.84,.84-.84s.84,.36,.84,.84v17.42c0,.48-.36,.84-.84,.84Z"/><path class="cls-1" d="M255.52,70.36c-.31,0-.48-.14-.64-.36l-11.87-15.65v15.23c0,.42-.34,.78-.78,.78-.48,0-.81-.36-.81-.78v-17.5c0-.48,.34-.81,.84-.81,.28,0,.5,.17,.64,.36l11.84,15.68v-15.23c0-.48,.34-.81,.81-.81s.78,.36,.78,.81v17.5c0,.42-.28,.78-.81,.78Z"/><path class="cls-1" d="M277.41,67.34c-1.51,1.71-4.2,3.14-7.56,3.14-6.27,0-9.32-4.84-9.32-9.66,0-5.43,3.86-9.66,9.32-9.66,2.55,0,4.87,.95,6.44,2.6,.14,.17,.22,.36,.22,.59,0,.42-.31,.73-.76,.73-.22,0-.42-.06-.59-.22-1.43-1.37-3.14-2.16-5.32-2.16-4.62,0-7.64,3.72-7.64,8.12s2.6,8.23,7.7,8.23c2.44,0,4.65-.92,6.1-2.38v-4.14h-5.35c-.39,0-.73-.31-.73-.73s.34-.73,.73-.73h6.16c.45,0,.81,.31,.81,.78v4.84c0,.28-.08,.48-.22,.64Z"/><path class="cls-1" d="M291.95,68.62h9.97c.42,0,.76,.34,.76,.76s-.34,.76-.76,.76h-10.81c-.48,0-.84-.36-.84-.84v-16.97c0-.48,.36-.84,.84-.84h10.78c.42,0,.76,.34,.76,.76s-.34,.76-.76,.76h-9.94v6.75h5.77c.42,0,.76,.34,.76,.76s-.34,.76-.76,.76h-5.77v7.36Z"/><path class="cls-1" d="M320.62,70.36c-.31,0-.48-.14-.64-.36l-11.87-15.65v15.23c0,.42-.34,.78-.78,.78-.48,0-.81-.36-.81-.78v-17.5c0-.48,.34-.81,.84-.81,.28,0,.5,.17,.64,.36l11.84,15.68v-15.23c0-.48,.34-.81,.81-.81s.78,.36,.78,.81v17.5c0,.42-.28,.78-.81,.78Z"/><path class="cls-1" d="M331.79,69.83l-7.42-17.44c-.06-.14-.08-.28-.08-.39,0-.42,.36-.73,.78-.73,.31,0,.56,.14,.7,.45l6.78,15.96,6.78-15.96c.14-.31,.39-.45,.7-.45,.42,0,.78,.31,.78,.73,0,.11-.03,.25-.08,.39l-7.42,17.44c-.14,.31-.34,.53-.76,.53s-.62-.22-.76-.53Z"/><path class="cls-1" d="M344.64,70.36c-.48,0-.84-.36-.84-.84v-17.42c0-.48,.36-.84,.84-.84s.84,.36,.84,.84v17.42c0,.48-.36,.84-.84,.84Z"/><path class="cls-1" d="M361.25,61.71l3.64,7.45c.06,.11,.11,.25,.11,.39,0,.42-.34,.81-.81,.81-.42,0-.62-.17-.78-.48l-3.95-8.04h-6.92v7.67c0,.48-.34,.84-.84,.84-.48,0-.84-.36-.84-.84v-17.19c0-.48,.39-.84,.84-.84h8.04c3.7,0,5.74,2.21,5.74,5.18,0,2.55-1.48,4.54-4.23,5.04Zm-1.18-8.71h-7.53v7.34h7.53c2.32,0,3.72-1.54,3.72-3.67s-1.4-3.67-3.72-3.67Z"/><path class="cls-1" d="M377.82,70.47c-5.6,0-9.41-4.45-9.41-9.66s3.81-9.66,9.41-9.66,9.35,4.45,9.35,9.66-3.75,9.66-9.35,9.66Zm0-17.84c-4.82,0-7.73,3.89-7.73,8.18s2.91,8.18,7.73,8.18,7.67-3.89,7.67-8.18-2.86-8.18-7.67-8.18Z"/><path class="cls-1" d="M405.32,70.36c-.31,0-.48-.14-.64-.36l-11.87-15.65v15.23c0,.42-.34,.78-.78,.78-.48,0-.81-.36-.81-.78v-17.5c0-.48,.34-.81,.84-.81,.28,0,.5,.17,.64,.36l11.84,15.68v-15.23c0-.48,.34-.81,.81-.81s.78,.36,.78,.81v17.5c0,.42-.28,.78-.81,.78Z"/><path class="cls-1" d="M428.14,51.8c.17-.34,.36-.53,.78-.53,.48,0,.81,.34,.81,.81v17.47c0,.45-.31,.81-.81,.81-.45,0-.78-.36-.78-.81v-14.28l-6.8,14.59c-.14,.31-.36,.5-.78,.5s-.64-.2-.78-.5l-6.8-14.59v14.28c0,.45-.34,.81-.78,.81-.5,0-.81-.36-.81-.81v-17.47c0-.48,.34-.81,.81-.81,.42,0,.62,.2,.78,.53l7.59,16.21,7.59-16.21Z"/><path class="cls-1" d="M436.65,68.62h9.97c.42,0,.76,.34,.76,.76s-.34,.76-.76,.76h-10.81c-.48,0-.84-.36-.84-.84v-16.97c0-.48,.36-.84,.84-.84h10.78c.42,0,.76,.34,.76,.76s-.34,.76-.76,.76h-9.94v6.75h5.77c.42,0,.76,.34,.76,.76s-.34,.76-.76,.76h-5.77v7.36Z"/><path class="cls-1" d="M465.32,70.36c-.31,0-.48-.14-.64-.36l-11.87-15.65v15.23c0,.42-.34,.78-.78,.78-.48,0-.81-.36-.81-.78v-17.5c0-.48,.34-.81,.84-.81,.28,0,.5,.17,.64,.36l11.84,15.68v-15.23c0-.48,.34-.81,.81-.81s.78,.36,.78,.81v17.5c0,.42-.28,.78-.81,.78Z"/><path class="cls-1" d="M476.86,70.36c-.48,0-.84-.36-.84-.84v-16.52h-6.05c-.42,0-.76-.34-.76-.76s.34-.76,.76-.76h13.78c.42,0,.76,.34,.76,.76s-.34,.76-.76,.76h-6.05v16.52c0,.48-.36,.84-.84,.84Z"/><path class="cls-1" d="M501.27,69.21c.06,.11,.11,.25,.11,.39,0,.42-.31,.76-.81,.76-.42,0-.64-.25-.76-.53l-2.3-5.12h-9.63l-2.3,5.12c-.11,.28-.34,.53-.76,.53-.5,0-.81-.34-.81-.76,0-.14,.06-.28,.11-.39l7.78-17.39c.17-.36,.39-.56,.78-.56s.62,.2,.78,.56l7.78,17.39Zm-4.4-5.99l-4.17-9.6-4.17,9.6h8.34Z"/><path class="cls-1" d="M517.01,68.62c.42,0,.76,.34,.76,.76s-.34,.76-.76,.76h-10.86c-.48,0-.84-.36-.84-.84v-17.19c0-.48,.36-.84,.84-.84s.84,.36,.84,.84v16.52h10.02Z"/><path class="cls-1" d="M535.8,70.14h-5.32c-.5,0-.84-.39-.84-.84v-16.97c0-.48,.36-.84,.84-.84h5.32c5.66,0,9.3,4.12,9.3,9.32s-3.64,9.32-9.3,9.32Zm-.11-17.14h-4.37v15.62h4.37c4.87,0,7.73-3.42,7.73-7.81s-2.86-7.81-7.73-7.81Z"/><path class="cls-1" d="M550.61,68.62h9.97c.42,0,.76,.34,.76,.76s-.34,.76-.76,.76h-10.81c-.48,0-.84-.36-.84-.84v-16.97c0-.48,.36-.84,.84-.84h10.78c.42,0,.76,.34,.76,.76s-.34,.76-.76,.76h-9.94v6.75h5.77c.42,0,.76,.34,.76,.76s-.34,.76-.76,.76h-5.77v7.36Z"/><path class="cls-1" d="M580.18,67.34c-1.51,1.71-4.2,3.14-7.56,3.14-6.27,0-9.32-4.84-9.32-9.66,0-5.43,3.86-9.66,9.32-9.66,2.55,0,4.87,.95,6.44,2.6,.14,.17,.22,.36,.22,.59,0,.42-.31,.73-.76,.73-.22,0-.42-.06-.59-.22-1.43-1.37-3.14-2.16-5.32-2.16-4.62,0-7.64,3.72-7.64,8.12s2.6,8.23,7.7,8.23c2.44,0,4.65-.92,6.1-2.38v-4.14h-5.35c-.39,0-.73-.31-.73-.73s.34-.73,.73-.73h6.16c.45,0,.81,.31,.81,.78v4.84c0,.28-.08,.48-.22,.64Z"/><path class="cls-1" d="M595.1,61.71l3.64,7.45c.06,.11,.11,.25,.11,.39,0,.42-.34,.81-.81,.81-.42,0-.62-.17-.78-.48l-3.95-8.04h-6.92v7.67c0,.48-.34,.84-.84,.84-.48,0-.84-.36-.84-.84v-17.19c0-.48,.39-.84,.84-.84h8.04c3.7,0,5.74,2.21,5.74,5.18,0,2.55-1.48,4.54-4.23,5.04Zm-1.18-8.71h-7.53v7.34h7.53c2.32,0,3.72-1.54,3.72-3.67s-1.4-3.67-3.72-3.67Z"/><path class="cls-1" d="M619.6,69.21c.06,.11,.11,.25,.11,.39,0,.42-.31,.76-.81,.76-.42,0-.64-.25-.76-.53l-2.3-5.12h-9.63l-2.3,5.12c-.11,.28-.34,.53-.76,.53-.5,0-.81-.34-.81-.76,0-.14,.06-.28,.11-.39l7.78-17.39c.17-.36,.39-.56,.78-.56s.62,.2,.78,.56l7.78,17.39Zm-4.4-5.99l-4.17-9.6-4.17,9.6h8.34Z"/><path class="cls-1" d="M629.79,70.14h-5.32c-.5,0-.84-.39-.84-.84v-16.97c0-.48,.36-.84,.84-.84h5.32c5.66,0,9.3,4.12,9.3,9.32s-3.64,9.32-9.3,9.32Zm-.11-17.14h-4.37v15.62h4.37c4.87,0,7.73-3.42,7.73-7.81s-2.86-7.81-7.73-7.81Z"/><path class="cls-1" d="M657.6,69.21c.06,.11,.11,.25,.11,.39,0,.42-.31,.76-.81,.76-.42,0-.64-.25-.76-.53l-2.3-5.12h-9.63l-2.3,5.12c-.11,.28-.34,.53-.76,.53-.5,0-.81-.34-.81-.76,0-.14,.06-.28,.11-.39l7.78-17.39c.17-.36,.39-.56,.78-.56s.62,.2,.78,.56l7.78,17.39Zm-4.4-5.99l-4.17-9.6-4.17,9.6h8.34Z"/><path class="cls-1" d="M664.88,70.36c-.48,0-.84-.36-.84-.84v-16.52h-6.05c-.42,0-.76-.34-.76-.76s.34-.76,.76-.76h13.78c.42,0,.76,.34,.76,.76s-.34,.76-.76,.76h-6.05v16.52c0,.48-.36,.84-.84,.84Z"/><path class="cls-1" d="M676.58,70.36c-.48,0-.84-.36-.84-.84v-17.42c0-.48,.36-.84,.84-.84s.84,.36,.84,.84v17.42c0,.48-.36,.84-.84,.84Z"/><path class="cls-1" d="M691,70.47c-5.6,0-9.41-4.45-9.41-9.66s3.81-9.66,9.41-9.66,9.35,4.45,9.35,9.66-3.75,9.66-9.35,9.66Zm0-17.84c-4.82,0-7.73,3.89-7.73,8.18s2.91,8.18,7.73,8.18,7.67-3.89,7.67-8.18-2.86-8.18-7.67-8.18Z"/><path class="cls-1" d="M718.5,70.36c-.31,0-.48-.14-.64-.36l-11.87-15.65v15.23c0,.42-.34,.78-.78,.78-.48,0-.81-.36-.81-.78v-17.5c0-.48,.34-.81,.84-.81,.28,0,.5,.17,.64,.36l11.84,15.68v-15.23c0-.48,.34-.81,.81-.81s.78,.36,.78,.81v17.5c0,.42-.28,.78-.81,.78Z"/></g><path class="cls-9" d="M429.73,270.66H69.17c-1.38,0-2.5-1.12-2.5-2.5s1.12-2.5,2.5-2.5H429.73c1.38,0,2.5,1.12,2.5,2.5s-1.12,2.5-2.5,2.5Z"/><g><path class="cls-1" d="M366.39,239.36h-42.18c-4,0-6.66-3.11-6.66-6.66V98.17c0-3.77,2.89-6.66,6.66-6.66h42.18c44.84,0,73.7,32.63,73.7,73.93s-28.86,73.93-73.7,73.93Zm-.89-135.86h-34.63v123.88h34.63c38.63,0,61.27-27.08,61.27-61.94s-22.64-61.94-61.27-61.94Z"/><path class="cls-1" d="M215.21,168.98V103.49h78.81c3.33,0,5.99-2.66,5.99-5.99s-2.66-5.99-5.99-5.99h-85.47c-3.77,0-6.66,2.89-6.66,6.66v71.06l13.32-.24Z"/><path class="cls-1" d="M145.95,172.54c21.76-4,33.52-19.76,33.52-39.96,0-23.53-16.21-41.07-45.51-41.07h-40.37c.27,3.71,.64,7.75,1.14,11.99h41.89c18.43,0,29.53,12.21,29.53,29.08s-11.1,29.08-29.53,29.08h-57.6c-1.85,2.03-3.06,3.21-3.06,3.21l-8.49,2.82s-1.7-2.33-3.89-6.31v73.09c0,3.77,2.89,6.66,6.66,6.66,4,0,6.66-2.89,6.66-6.66v-60.83h54.83l31.3,63.71c1.33,2.44,2.89,3.77,6.22,3.77,3.77,0,6.44-3.11,6.44-6.44,0-1.11-.44-2.22-.89-3.11l-28.86-59.05Z"/><path class="cls-7" d="M100.68,121.38c-5.48-25.93-4.72-51.16-4.71-51.41,.03-.97-.4-1.89-1.17-2.48-.77-.59-1.77-.77-2.69-.49-.97,.29-23.83,7.49-37.09,38.54-13.38,31.32,9.07,62.61,10.03,63.92,.58,.79,1.48,1.23,2.42,1.23,.31,0,.63-.05,.94-.15l8.49-2.82c.43-.14,.83-.38,1.15-.7,1.09-1.07,26.69-26.38,22.62-45.64Zm-24.46,38.92c-.36-2.55-.66-5.14-.8-7.58-.89-18.67,2.55-37.54,8.81-55.18-10.33,18-17.91,38.16-19.75,58.99-5.4-11.02-11.84-30.13-3.94-48.64,8.93-20.9,22.7-30.06,29.39-33.45,.02,8.63,.62,27.96,4.89,48.18,2.53,11.96-10.92,29.44-18.59,37.68Z"/><path class="cls-4" d="M368.5,149.27c-.96,0-1.91-.34-2.68-1.03l-20.41-18.42c-.89-.8-1.37-1.96-1.32-3.15,.05-1.19,.64-2.3,1.6-3.02l20.41-15.31c1.77-1.33,4.27-.97,5.6,.8,1.33,1.77,.97,4.27-.8,5.6l-16.52,12.39,16.8,15.17c1.64,1.48,1.77,4.01,.29,5.65-.79,.88-1.88,1.32-2.97,1.32Z"/><g><path class="cls-1" d="M626.6,159.8c1.03,3.34-4.6,3.45-.37,6.05,1.21,.74,2.5,1.41,3.85,1.98,4.97,2.1,9.77,2.4,12.85,.82,1.09-.56,2.16-1.28,3.29-2.03,1.14-.77,2.32-1.56,3.62-2.25,3.62-1.92,7.79-2.69,11.95-2.37,3.49-.08,7.01,.91,9.86,2.94,.12,.08,.24,.18,.36,.26,.35,.2,.7,.41,1.03,.63,6.43,4.21,13.95,5.28,18.51,5.04l-6.99-15.61c-4.27-5.35-10.65-7-16.22-6.96l4.5,10.35c-6.42-3.43-14.55-3.55-21.01-.12-1.3,.69-2.48,1.48-3.62,2.25-1.13,.76-2.19,1.47-3.29,2.04-3.65,1.87-8.2,1.9-12.5,.09-1.51-.64-2.87-1.47-4.07-2.43l-1.76-.68Z"/><path class="cls-1" d="M718.92,232.03l-18.75-41.89c-4.08,3.09-7.72,5.05-10.96,6.17l3.15,7.08h-.01s15.03,33.54,15.03,33.54c.89,2.22,2.66,4.22,5.99,4.22,4,0,6.44-2.66,6.44-5.99,0-1.11-.44-2.22-.89-3.11Z"/><path class="cls-1" d="M694.13,176.65c-1.23,.21-2.58,.31-4.02,.31-3.05,0-6.49-.48-9.96-1.45l3.91,9.01h-.11l.63,1.42c-1.94,.25-5.88-1.32-9.46-3.87-6.69-4.77-16.05-5.39-23.31-1.54-1.3,.69-2.48,1.48-3.62,2.25-1.13,.76-2.19,1.47-3.29,2.03-3.21,1.65-7.61,1.51-12.09-.38-4.97-2.09-9.02-5.98-10.53-10.03l-.59-2.92c-4-2.36-3.64,.74-5.81-2.55l-2.27-.43c2.75-.83,.7,.27,.71,.28,2.1,4.61,1.83,8.85,5.01,12.21,3.81,4.02,8.26,7.02,13.03,8.68,4.84,1.68,9.41,1.73,12.54,.13,1.21-.62,2.32-1.12,3.41-1.61,1.19-.54,2.31-1.04,3.5-1.67,7.12-3.78,17.55-4.36,23.7,1.87,4.77,4.83,13.28,3.04,22.29-3.54l-3.68-8.22Z"/><path class="cls-1" d="M623.91,144.92c2.1,2.15,5.26,4.03,8.93,5.17v.08c2.64,1.04,5.44,1.6,8.21,1.6,.74,0,1.48-.04,2.21-.12,.49-.15,.96-.32,1.39-.54,1.31-.67,3.9-2.12,6.19-3.4,1.88-1.05,3.67-2.06,4.74-2.62,5.06-2.69,15.21-4.41,24.09-.75l-22.46-50.16c-1.33-2.89-3.11-4.44-6.22-4.44s-4.88,1.55-6.22,4.44l-22.29,49.97c.46,.14,1.06,.41,1.42,.78Zm27.08-36.54l12.68,29.2c-3.33,.11-6.63,.92-9.58,2.49-1.3,.69-2.48,1.48-3.62,2.25-1.13,.76-2.19,1.47-3.29,2.04-3.53,1.81-7.97,1.81-11.95,.3l15.76-36.28Z"/></g><path class="cls-5" d="M215.01,175.28c-.03-.16,0-.5,0-.67,0-1.38,1.12-2.5,2.5-2.5h32.5c1.38,0,2.5,1.12,2.5,2.5s-1.12,2.5-2.5,2.5h-29.8v10.21h38.06c3.66,0,6.64-2.97,6.64-6.64v-12.77c0-3.66-2.97-6.64-6.64-6.64H69.73c-3.66,0-6.64,2.97-6.64,6.64s2.97,6.64,6.64,6.64H201.87v6.25l-.18,52.34c0,3.66,2.97,6.64,6.64,6.64h90.58l-12.14,9.11c-1.33,.99-1.59,2.87-.6,4.2,.59,.79,1.49,1.2,2.4,1.2,.63,0,1.26-.2,1.8-.6l20.41-15.31c.72-.54,1.16-1.37,1.2-2.26,.04-.9-.32-1.76-.99-2.36l-20.41-18.43c-1.23-1.11-3.13-1.01-4.24,.22-1.11,1.23-1.01,3.13,.22,4.24l7.45,6.73h-76.83l-2.12,.12v-.12h-.1v-39.19l.04-12.04Z"/><path class="cls-1" d="M553.48,186.78l-41.46-92.61c-1.33-2.89-3.11-4.44-6.22-4.44s-4.88,1.55-6.22,4.44l-61.72,137.86c-.44,.89-.89,2-.89,3.11,0,3.33,2.44,5.99,6.44,5.99,3.33,0,5.11-2,5.99-4.22l20-44.8,72.21-.35,11.85-4.99Zm-47.8-68.01c7.31,0,13.23,5.92,13.23,13.23s-5.92,13.23-13.23,13.23-13.23-5.92-13.23-13.23,5.92-13.23,13.23-13.23Zm-18.13,69.3v-3.55h-14.82l2.28-5.24h12.54v-19.76c0-5.71,4.67-10.37,10.37-10.37h12.58c5.71,0,10.37,4.67,10.37,10.37v19.76h15.74l2.28,5.24h-23.52l-27.82,3.55Z"/><path class="cls-3" d="M569.2,243c-2.63,0-5.03-1.53-6.14-3.94l-21.27-46.59-141.75,.4-.05-13.5,145.93-.59h.03c2.64,0,5.04,1.54,6.14,3.94l21.39,46.67,9.61,.15,.57,13.06-14.28,.4c-.06,0-.12,0-.17,0Z"/><path class="cls-4" d="M371.62,211.59c-2.06,0-3.81-1.58-3.98-3.67-.18-2.2,1.45-4.13,3.65-4.32,20.18-1.68,30.26-19.55,29.5-35.51-1.04-21.93-14.69-35.05-38.43-36.92-2.2-.17-3.85-2.1-3.67-4.3,.17-2.2,2.11-3.85,4.3-3.67,27.86,2.2,44.55,18.43,45.79,44.52,.94,19.7-11.65,41.76-36.83,43.86-.11,0-.23,.01-.34,.01Z"/><g><path class="cls-2" d="M611.33,168.96c2.06,4.53,4.74,8.54,7.85,11.86l4.33-9.6c-4.31-2.57-7.84-5.98-9.94-9.58l-2.89,6.41c.27,.26,.49,.56,.65,.91Z"/><path class="cls-2" d="M617.74,156.39c1.01,3.28,4.13,6.73,8.25,9.32l4.12-9.15c-4.4-1.47-8.45-3.82-11.14-6.58-.04-.04-.06-.08-.1-.12l-2.25,4.99c.51,.37,.92,.89,1.12,1.54Z"/><path class="cls-2" d="M623.27,145.79c2.12,2.18,5.63,4.07,9.35,5.21l23.86-52.95c1.47-3.27,.02-7.12-3.26-8.6-3.27-1.48-7.12-.02-8.6,3.26l-23.51,52.18c.78,0,1.57,.3,2.16,.9Z"/><path class="cls-2" d="M582.52,242.65l4.67-.17c2.56,0,4.88-1.5,5.93-3.83l23.42-51.98c-3.45-3.31-6.48-7.29-8.94-11.8l-24.61,54.6-.47,13.17Z"/></g></g></g></g></g></svg>